<mxfile host="app.diagrams.net" modified="2024-01-10T00:00:00.000Z" agent="5.0" etag="" version="22.1.16" type="device">
  <diagram id="SIRE-Network-Security-Zones" name="SIRE Network Topology &amp; Security Zones">
    <mxGraphModel dx="2074" dy="1196" grid="1" gridSize="10" guides="1" tooltips="1" connect="1" arrows="1" fold="1" page="1" pageScale="1" pageWidth="1654" pageHeight="1169" math="0" shadow="0">
      <root>
        <mxCell id="0" />
        <mxCell id="1" parent="0" />
        
        <!-- Title -->
        <mxCell id="title" value="SIRE Network Topology &amp; Security Zones" style="text;html=1;strokeColor=none;fillColor=none;align=center;verticalAlign=middle;whiteSpace=wrap;rounded=0;fontSize=24;fontStyle=1;fontColor=#2F5496;" vertex="1" parent="1">
          <mxGeometry x="527" y="20" width="600" height="40" as="geometry" />
        </mxCell>
        
        <!-- Security Zone Legend -->
        <mxCell id="security-legend" value="" style="rounded=1;whiteSpace=wrap;html=1;fillColor=#F2F2F2;strokeColor=#666666;strokeWidth=1;" vertex="1" parent="1">
          <mxGeometry x="20" y="80" width="220" height="200" as="geometry" />
        </mxCell>
        <mxCell id="legend-title" value="Security Zones Legend" style="text;html=1;strokeColor=none;fillColor=none;align=center;verticalAlign=middle;whiteSpace=wrap;rounded=0;fontSize=14;fontStyle=1;" vertex="1" parent="1">
          <mxGeometry x="70" y="90" width="120" height="20" as="geometry" />
        </mxCell>
        
        <!-- DMZ Zone -->
        <mxCell id="dmz-legend" value="" style="rounded=1;whiteSpace=wrap;html=1;fillColor=#FFE6CC;strokeColor=#D79B00;strokeWidth=2;" vertex="1" parent="1">
          <mxGeometry x="30" y="120" width="20" height="15" as="geometry" />
        </mxCell>
        <mxCell id="dmz-legend-text" value="DMZ Zone (Semi-Trusted)" style="text;html=1;strokeColor=none;fillColor=none;align=left;verticalAlign=middle;whiteSpace=wrap;rounded=0;fontSize=10;" vertex="1" parent="1">
          <mxGeometry x="55" y="118" width="150" height="18" as="geometry" />
        </mxCell>
        
        <!-- Trusted Zone -->
        <mxCell id="trusted-legend" value="" style="rounded=1;whiteSpace=wrap;html=1;fillColor=#D5E8D4;strokeColor=#82B366;strokeWidth=2;" vertex="1" parent="1">
          <mxGeometry x="30" y="145" width="20" height="15" as="geometry" />
        </mxCell>
        <mxCell id="trusted-legend-text" value="Trusted Zone (Internal)" style="text;html=1;strokeColor=none;fillColor=none;align=left;verticalAlign=middle;whiteSpace=wrap;rounded=0;fontSize=10;" vertex="1" parent="1">
          <mxGeometry x="55" y="143" width="150" height="18" as="geometry" />
        </mxCell>
        
        <!-- Restricted Zone -->
        <mxCell id="restricted-legend" value="" style="rounded=1;whiteSpace=wrap;html=1;fillColor=#F8CECC;strokeColor=#B85450;strokeWidth=2;" vertex="1" parent="1">
          <mxGeometry x="30" y="170" width="20" height="15" as="geometry" />
        </mxCell>
        <mxCell id="restricted-legend-text" value="Restricted Zone (High Security)" style="text;html=1;strokeColor=none;fillColor=none;align=left;verticalAlign=middle;whiteSpace=wrap;rounded=0;fontSize=10;" vertex="1" parent="1">
          <mxGeometry x="55" y="168" width="150" height="18" as="geometry" />
        </mxCell>
        
        <!-- Isolated Zone -->
        <mxCell id="isolated-legend" value="" style="rounded=1;whiteSpace=wrap;html=1;fillColor=#E1F5FE;strokeColor=#0277BD;strokeWidth=2;" vertex="1" parent="1">
          <mxGeometry x="30" y="195" width="20" height="15" as="geometry" />
        </mxCell>
        <mxCell id="isolated-legend-text" value="Isolated Zone (Air-Gapped)" style="text;html=1;strokeColor=none;fillColor=none;align=left;verticalAlign=middle;whiteSpace=wrap;rounded=0;fontSize=10;" vertex="1" parent="1">
          <mxGeometry x="55" y="193" width="150" height="18" as="geometry" />
        </mxCell>
        
        <!-- Management Zone -->
        <mxCell id="mgmt-legend" value="" style="rounded=1;whiteSpace=wrap;html=1;fillColor=#FFECB3;strokeColor=#F57F17;strokeWidth=2;" vertex="1" parent="1">
          <mxGeometry x="30" y="220" width="20" height="15" as="geometry" />
        </mxCell>
        <mxCell id="mgmt-legend-text" value="Management Zone (Ops)" style="text;html=1;strokeColor=none;fillColor=none;align=left;verticalAlign=middle;whiteSpace=wrap;rounded=0;fontSize=10;" vertex="1" parent="1">
          <mxGeometry x="55" y="218" width="150" height="18" as="geometry" />
        </mxCell>
        
        <!-- Backup Zone -->
        <mxCell id="backup-legend" value="" style="rounded=1;whiteSpace=wrap;html=1;fillColor=#DAE8FC;strokeColor=#6C8EBF;strokeWidth=2;" vertex="1" parent="1">
          <mxGeometry x="30" y="245" width="20" height="15" as="geometry" />
        </mxCell>
        <mxCell id="backup-legend-text" value="Backup Zone (Immutable)" style="text;html=1;strokeColor=none;fillColor=none;align=left;verticalAlign=middle;whiteSpace=wrap;rounded=0;fontSize=10;" vertex="1" parent="1">
          <mxGeometry x="55" y="243" width="150" height="18" as="geometry" />
        </mxCell>
        
        <!-- Internet Gateway -->
        <mxCell id="internet" value="" style="ellipse;shape=cloud;whiteSpace=wrap;html=1;fillColor=#E3F2FD;strokeColor=#1976D2;strokeWidth=2;" vertex="1" parent="1">
          <mxGeometry x="300" y="70" width="120" height="80" as="geometry" />
        </mxCell>
        <mxCell id="internet-label" value="Internet" style="text;html=1;strokeColor=none;fillColor=none;align=center;verticalAlign=middle;whiteSpace=wrap;rounded=0;fontSize=12;fontStyle=1;" vertex="1" parent="1">
          <mxGeometry x="330" y="105" width="60" height="20" as="geometry" />
        </mxCell>
        
        <!-- Azure Front Door -->
        <mxCell id="front-door" value="" style="image;aspect=fixed;html=1;points=[];align=center;fontSize=12;image=img/lib/azure2/networking/Front_Doors.svg;" vertex="1" parent="1">
          <mxGeometry x="320" y="180" width="80" height="70" as="geometry" />
        </mxCell>
        <mxCell id="front-door-label" value="Azure Front Door&#xa;(Global Load Balancer)" style="text;html=1;strokeColor=none;fillColor=none;align=center;verticalAlign=middle;whiteSpace=wrap;rounded=0;fontSize=10;fontStyle=1;" vertex="1" parent="1">
          <mxGeometry x="300" y="255" width="120" height="25" as="geometry" />
        </mxCell>
        
        <!-- Production Hub VNet -->
        <mxCell id="prod-hub-vnet" value="Production Hub VNet (10.0.0.0/16)" style="rounded=1;whiteSpace=wrap;html=1;fillColor=#D5E8D4;strokeColor=#82B366;strokeWidth=3;fontSize=14;fontStyle=1;verticalAlign=top;align=center;" vertex="1" parent="1">
          <mxGeometry x="480" y="120" width="400" height="280" as="geometry" />
        </mxCell>
        
        <!-- DMZ Subnet -->
        <mxCell id="dmz-subnet" value="DMZ Subnet (10.0.1.0/24)" style="rounded=1;whiteSpace=wrap;html=1;fillColor=#FFE6CC;strokeColor=#D79B00;strokeWidth=2;fontSize=12;fontStyle=1;verticalAlign=top;align=center;" vertex="1" parent="1">
          <mxGeometry x="500" y="150" width="160" height="100" as="geometry" />
        </mxCell>
        
        <!-- Azure Firewall -->
        <mxCell id="azure-firewall" value="" style="outlineConnect=0;dashed=0;verticalLabelPosition=bottom;verticalAlign=top;align=center;html=1;shape=image;image=data:image/svg+xml;base64,PHN2ZyB4bWxucz0iaHR0cDovL3d3dy53My5vcmcvMjAwMC9zdmciIHZpZXdCb3g9IjAgMCA0OCA0OCIgZmlsbD0iIzAwNzhENCIgaGVpZ2h0PSI0OCIgd2lkdGg9IjQ4Ij4KICA8ZGVmcz4KICAgIDxsaW5lYXJHcmFkaWVudCBpZD0iZmlyZXdhbGxHcmFkIiB4MT0iMCUiIHkxPSIwJSIgeDI9IjEwMCUiIHkyPSIxMDAlIj4KICAgICAgPHN0b3Agb2Zmc2V0PSIwJSIgc3R5bGU9InN0b3AtY29sb3I6IzAwNzhENDtzdG9wLW9wYWNpdHk6MSIgLz4KICAgICAgPHN0b3Agb2Zmc2V0PSIxMDAlIiBzdHlsZT0ic3RvcC1jb2xvcjojMDA1QTlFO3N0b3Atb3BhY2l0eToxIiAvPgogICAgPC9saW5lYXJHcmFkaWVudD4KICA8L2RlZnM+CiAgPHBhdGggZD0iTTI0IDRMOCAxMlYzMkM4IDM4LjYyNyAxNi4zNzMgNDQgMjQgNDRDMzEuNjI3IDQ0IDQwIDM4LjYyNyA0MCAzMlYxMkwyNCA0WiIgZmlsbD0idXJsKCNmaXJld2FsbEdyYWQpIi8+CiAgPHBhdGggZmlsbD0iI0ZGRkZGRiIgZD0iTTI0IDhMMTQgMTRWMzBDMTQgMzQuNDE4IDE4LjU4MiAzOCAyNCAzOEMyOS40MTggMzggMzQgMzQuNDE4IDM0IDMwVjE0TDI0IDhaIi8+CiAgPHBhdGggZmlsbD0iIzAwNzhENCIgZD0iTTI0IDEyTDE4IDE2VjI2QzE4IDI4LjIwOSAyMC43OTEgMzAgMjQgMzBDMjcuMjA5IDMwIDMwIDI4LjIwOSAzMCAyNlYxNkwyNCAxMloiLz4KICA8cmVjdCB4PSIyMSIgeT0iMTkiIHdpZHRoPSI2IiBoZWlnaHQ9IjIiIGZpbGw9IiNGRkZGRkYiLz4KICA8cmVjdCB4PSIyMSIgeT0iMjIiIHdpZHRoPSI2IiBoZWlnaHQ9IjIiIGZpbGw9IiNGRkZGRkYiLz4KICA8cmVjdCB4PSIyMSIgeT0iMjUiIHdpZHRoPSI2IiBoZWlnaHQ9IjIiIGZpbGw9IiNGRkZGRkYiLz4KPC9zdmc+;fillColor=#0078D4;strokeColor=none;" vertex="1" parent="1">
          <mxGeometry x="520" y="170" width="50" height="44" as="geometry" />
        </mxCell>
        <mxCell id="firewall-label" value="Azure Firewall&#xa;(Network Security)" style="text;html=1;strokeColor=none;fillColor=none;align=center;verticalAlign=middle;whiteSpace=wrap;rounded=0;fontSize=9;" vertex="1" parent="1">
          <mxGeometry x="495" y="220" width="100" height="25" as="geometry" />
        </mxCell>
        
        <!-- Application Gateway -->
        <mxCell id="app-gateway" value="" style="image;aspect=fixed;html=1;points=[];align=center;fontSize=12;image=img/lib/azure2/networking/Application_Gateways.svg;" vertex="1" parent="1">
          <mxGeometry x="590" y="170" width="50" height="50" as="geometry" />
        </mxCell>
        <mxCell id="app-gateway-label" value="Application Gateway&#xa;(L7 Load Balancer)" style="text;html=1;strokeColor=none;fillColor=none;align=center;verticalAlign=middle;whiteSpace=wrap;rounded=0;fontSize=9;" vertex="1" parent="1">
          <mxGeometry x="570" y="225" width="90" height="20" as="geometry" />
        </mxCell>
        
        <!-- Application Subnet -->
        <mxCell id="app-subnet" value="Application Subnet (10.0.2.0/24)" style="rounded=1;whiteSpace=wrap;html=1;fillColor=#D5E8D4;strokeColor=#82B366;strokeWidth=2;fontSize=12;fontStyle=1;verticalAlign=top;align=center;" vertex="1" parent="1">
          <mxGeometry x="500" y="270" width="160" height="80" as="geometry" />
        </mxCell>
        
        <!-- VM Scale Set -->
        <mxCell id="vmss" value="" style="image;aspect=fixed;html=1;points=[];align=center;fontSize=12;image=img/lib/azure2/compute/VM_Scale_Sets.svg;" vertex="1" parent="1">
          <mxGeometry x="520" y="290" width="50" height="40" as="geometry" />
        </mxCell>
        <mxCell id="vmss-label" value="VM Scale Set" style="text;html=1;strokeColor=none;fillColor=none;align=center;verticalAlign=middle;whiteSpace=wrap;rounded=0;fontSize=9;" vertex="1" parent="1">
          <mxGeometry x="505" y="335" width="80" height="10" as="geometry" />
        </mxCell>
        
        <!-- App Service -->
        <mxCell id="app-service" value="" style="image;aspect=fixed;html=1;points=[];align=center;fontSize=12;image=img/lib/azure2/app_services/App_Services.svg;" vertex="1" parent="1">
          <mxGeometry x="590" y="285" width="50" height="50" as="geometry" />
        </mxCell>
        <mxCell id="app-service-label" value="App Service" style="text;html=1;strokeColor=none;fillColor=none;align=center;verticalAlign=middle;whiteSpace=wrap;rounded=0;fontSize=9;" vertex="1" parent="1">
          <mxGeometry x="580" y="335" width="70" height="10" as="geometry" />
        </mxCell>
        
        <!-- Data Subnet -->
        <mxCell id="data-subnet" value="Data Subnet (10.0.3.0/24)" style="rounded=1;whiteSpace=wrap;html=1;fillColor=#F8CECC;strokeColor=#B85450;strokeWidth=2;fontSize=12;fontStyle=1;verticalAlign=top;align=center;" vertex="1" parent="1">
          <mxGeometry x="690" y="150" width="160" height="200" as="geometry" />
        </mxCell>
        
        <!-- SQL Database -->
        <mxCell id="sql-database" value="" style="image;aspect=fixed;html=1;points=[];align=center;fontSize=12;image=img/lib/azure2/databases/SQL_Database.svg;" vertex="1" parent="1">
          <mxGeometry x="710" y="180" width="50" height="50" as="geometry" />
        </mxCell>
        <mxCell id="sql-label" value="SQL Database&#xa;(Private Endpoint)" style="text;html=1;strokeColor=none;fillColor=none;align=center;verticalAlign=middle;whiteSpace=wrap;rounded=0;fontSize=9;" vertex="1" parent="1">
          <mxGeometry x="685" y="235" width="100" height="20" as="geometry" />
        </mxCell>
        
        <!-- Storage Account -->
        <mxCell id="storage-account" value="" style="image;aspect=fixed;html=1;points=[];align=center;fontSize=12;image=img/lib/azure2/storage/Storage_Accounts.svg;" vertex="1" parent="1">
          <mxGeometry x="790" y="180" width="50" height="40" as="geometry" />
        </mxCell>
        <mxCell id="storage-label" value="Storage Account&#xa;(Private Endpoint)" style="text;html=1;strokeColor=none;fillColor=none;align=center;verticalAlign=middle;whiteSpace=wrap;rounded=0;fontSize=9;" vertex="1" parent="1">
          <mxGeometry x="770" y="225" width="90" height="20" as="geometry" />
        </mxCell>
        
        <!-- Key Vault -->
        <mxCell id="key-vault" value="" style="image;aspect=fixed;html=1;points=[];align=center;fontSize=12;image=img/lib/azure2/security/Key_Vaults.svg;" vertex="1" parent="1">
          <mxGeometry x="710" y="270" width="50" height="50" as="geometry" />
        </mxCell>
        <mxCell id="kv-label" value="Key Vault&#xa;(Secrets Management)" style="text;html=1;strokeColor=none;fillColor=none;align=center;verticalAlign=middle;whiteSpace=wrap;rounded=0;fontSize=9;" vertex="1" parent="1">
          <mxGeometry x="685" y="325" width="100" height="20" as="geometry" />
        </mxCell>
        
        <!-- Cosmos DB -->
        <mxCell id="cosmos-db" value="" style="image;aspect=fixed;html=1;points=[];align=center;fontSize=12;image=img/lib/azure2/databases/Azure_Cosmos_DB.svg;" vertex="1" parent="1">
          <mxGeometry x="790" y="270" width="50" height="50" as="geometry" />
        </mxCell>
        <mxCell id="cosmos-label" value="Cosmos DB&#xa;(NoSQL Database)" style="text;html=1;strokeColor=none;fillColor=none;align=center;verticalAlign=middle;whiteSpace=wrap;rounded=0;fontSize=9;" vertex="1" parent="1">
          <mxGeometry x="770" y="325" width="90" height="20" as="geometry" />
        </mxCell>
        
        <!-- SIRE Environment -->
        <mxCell id="sire-vnet" value="SIRE Isolated VNet (10.1.0.0/16)" style="rounded=1;whiteSpace=wrap;html=1;fillColor=#E1F5FE;strokeColor=#0277BD;strokeWidth=3;fontSize=14;fontStyle=1;verticalAlign=top;align=center;" vertex="1" parent="1">
          <mxGeometry x="920" y="120" width="400" height="280" as="geometry" />
        </mxCell>
        
        <!-- SIRE Recovery Subnet -->
        <mxCell id="sire-recovery-subnet" value="Recovery Subnet (10.1.1.0/24)" style="rounded=1;whiteSpace=wrap;html=1;fillColor=#E1F5FE;strokeColor=#0277BD;strokeWidth=2;fontSize=12;fontStyle=1;verticalAlign=top;align=center;" vertex="1" parent="1">
          <mxGeometry x="940" y="150" width="160" height="100" as="geometry" />
        </mxCell>
        
        <!-- Site Recovery -->
        <mxCell id="site-recovery" value="" style="image;aspect=fixed;html=1;points=[];align=center;fontSize=12;image=img/lib/azure2/migrate/Azure_Site_Recovery.svg;" vertex="1" parent="1">
          <mxGeometry x="960" y="170" width="50" height="50" as="geometry" />
        </mxCell>
        <mxCell id="asr-label" value="Azure Site Recovery" style="text;html=1;strokeColor=none;fillColor=none;align=center;verticalAlign=middle;whiteSpace=wrap;rounded=0;fontSize=9;" vertex="1" parent="1">
          <mxGeometry x="940" y="225" width="90" height="15" as="geometry" />
        </mxCell>
        
        <!-- Recovery Services Vault -->
        <mxCell id="recovery-vault" value="" style="image;aspect=fixed;html=1;points=[];align=center;fontSize=12;image=img/lib/azure2/storage/Recovery_Services_Vaults.svg;" vertex="1" parent="1">
          <mxGeometry x="1030" y="170" width="50" height="40" as="geometry" />
        </mxCell>
        <mxCell id="vault-label" value="Recovery Vault" style="text;html=1;strokeColor=none;fillColor=none;align=center;verticalAlign=middle;whiteSpace=wrap;rounded=0;fontSize=9;" vertex="1" parent="1">
          <mxGeometry x="1015" y="215" width="80" height="15" as="geometry" />
        </mxCell>
        
        <!-- SIRE Application Subnet -->
        <mxCell id="sire-app-subnet" value="SIRE Application Subnet (10.1.2.0/24)" style="rounded=1;whiteSpace=wrap;html=1;fillColor=#E1F5FE;strokeColor=#0277BD;strokeWidth=2;fontSize=12;fontStyle=1;verticalAlign=top;align=center;" vertex="1" parent="1">
          <mxGeometry x="940" y="270" width="160" height="80" as="geometry" />
        </mxCell>
        
        <!-- Recovered VM -->
        <mxCell id="recovered-vm" value="" style="image;aspect=fixed;html=1;points=[];align=center;fontSize=12;image=img/lib/azure2/compute/Virtual_Machines.svg;" vertex="1" parent="1">
          <mxGeometry x="960" y="290" width="50" height="45" as="geometry" />
        </mxCell>
        <mxCell id="recovered-vm-label" value="Recovered VMs" style="text;html=1;strokeColor=none;fillColor=none;align=center;verticalAlign=middle;whiteSpace=wrap;rounded=0;fontSize=9;" vertex="1" parent="1">
          <mxGeometry x="945" y="340" width="80" height="10" as="geometry" />
        </mxCell>
        
        <!-- Restored App Service -->
        <mxCell id="restored-app" value="" style="image;aspect=fixed;html=1;points=[];align=center;fontSize=12;image=img/lib/azure2/app_services/App_Services.svg;" vertex="1" parent="1">
          <mxGeometry x="1030" y="285" width="50" height="50" as="geometry" />
        </mxCell>
        <mxCell id="restored-app-label" value="Restored Services" style="text;html=1;strokeColor=none;fillColor=none;align=center;verticalAlign=middle;whiteSpace=wrap;rounded=0;fontSize=9;" vertex="1" parent="1">
          <mxGeometry x="1015" y="340" width="80" height="10" as="geometry" />
        </mxCell>
        
        <!-- SIRE Data Subnet -->
        <mxCell id="sire-data-subnet" value="SIRE Data Subnet (10.1.3.0/24)" style="rounded=1;whiteSpace=wrap;html=1;fillColor=#E1F5FE;strokeColor=#0277BD;strokeWidth=2;fontSize=12;fontStyle=1;verticalAlign=top;align=center;" vertex="1" parent="1">
          <mxGeometry x="1130" y="150" width="160" height="200" as="geometry" />
        </mxCell>
        
        <!-- Restored SQL -->
        <mxCell id="restored-sql" value="" style="image;aspect=fixed;html=1;points=[];align=center;fontSize=12;image=img/lib/azure2/databases/SQL_Database.svg;" vertex="1" parent="1">
          <mxGeometry x="1150" y="180" width="50" height="50" as="geometry" />
        </mxCell>
        <mxCell id="restored-sql-label" value="Restored Database" style="text;html=1;strokeColor=none;fillColor=none;align=center;verticalAlign=middle;whiteSpace=wrap;rounded=0;fontSize=9;" vertex="1" parent="1">
          <mxGeometry x="1125" y="235" width="100" height="15" as="geometry" />
        </mxCell>
        
        <!-- Backup Storage -->
        <mxCell id="backup-storage" value="" style="image;aspect=fixed;html=1;points=[];align=center;fontSize=12;image=img/lib/azure2/storage/Storage_Accounts.svg;" vertex="1" parent="1">
          <mxGeometry x="1230" y="180" width="50" height="40" as="geometry" />
        </mxCell>
        <mxCell id="backup-storage-label" value="Backup Storage&#xa;(Immutable)" style="text;html=1;strokeColor=none;fillColor=none;align=center;verticalAlign=middle;whiteSpace=wrap;rounded=0;fontSize=9;" vertex="1" parent="1">
          <mxGeometry x="1210" y="225" width="90" height="20" as="geometry" />
        </mxCell>
        
        <!-- SIRE Key Vault -->
        <mxCell id="sire-kv" value="" style="image;aspect=fixed;html=1;points=[];align=center;fontSize=12;image=img/lib/azure2/security/Key_Vaults.svg;" vertex="1" parent="1">
          <mxGeometry x="1150" y="270" width="50" height="50" as="geometry" />
        </mxCell>
        <mxCell id="sire-kv-label" value="SIRE Key Vault" style="text;html=1;strokeColor=none;fillColor=none;align=center;verticalAlign=middle;whiteSpace=wrap;rounded=0;fontSize=9;" vertex="1" parent="1">
          <mxGeometry x="1130" y="325" width="90" height="15" as="geometry" />
        </mxCell>
        
        <!-- Test Environment -->
        <mxCell id="sire-test" value="" style="image;aspect=fixed;html=1;points=[];align=center;fontSize=12;image=img/lib/azure2/devops/Azure_DevOps.svg;" vertex="1" parent="1">
          <mxGeometry x="1230" y="270" width="50" height="50" as="geometry" />
        </mxCell>
        <mxCell id="sire-test-label" value="Test Environment" style="text;html=1;strokeColor=none;fillColor=none;align=center;verticalAlign=middle;whiteSpace=wrap;rounded=0;fontSize=9;" vertex="1" parent="1">
          <mxGeometry x="1210" y="325" width="90" height="15" as="geometry" />
        </mxCell>
        
        <!-- Management and Monitoring -->
        <mxCell id="mgmt-zone" value="Management &amp; Monitoring Zone" style="rounded=1;whiteSpace=wrap;html=1;fillColor=#FFECB3;strokeColor=#F57F17;strokeWidth=3;fontSize=14;fontStyle=1;verticalAlign=top;align=center;" vertex="1" parent="1">
          <mxGeometry x="480" y="440" width="840" height="120" as="geometry" />
        </mxCell>
        
        <!-- Azure Monitor -->
        <mxCell id="azure-monitor" value="" style="outlineConnect=0;dashed=0;verticalLabelPosition=bottom;verticalAlign=top;align=center;html=1;shape=image;image=data:image/svg+xml;base64,PHN2ZyB4bWxucz0iaHR0cDovL3d3dy53My5vcmcvMjAwMC9zdmciIHZpZXdCb3g9IjAgMCA0OCA0OCIgZmlsbD0iIzAwNzhENCIgaGVpZ2h0PSI0OCIgd2lkdGg9IjQ4Ij4KICA8ZGVmcz4KICAgIDxsaW5lYXJHcmFkaWVudCBpZD0ibW9uaXRvckdyYWQiIHgxPSIwJSIgeTE9IjAlIiB4Mj0iMTAwJSIgeTI9IjEwMCUiPgogICAgICA8c3RvcCBvZmZzZXQ9IjAlIiBzdHlsZT0ic3RvcC1jb2xvcjojMDA3OEQ0O3N0b3Atb3BhY2l0eToxIiAvPgogICAgICA8c3RvcCBvZmZzZXQ9IjEwMCUiIHN0eWxlPSJzdG9wLWNvbG9yOiMwMDVBOUU7c3RvcC1vcGFjaXR5OjEiIC8+CiAgICA8L2xpbmVhckdyYWRpZW50PgogIDwvZGVmcz4KICA8cmVjdCB4PSI0IiB5PSI2IiB3aWR0aD0iNDAiIGhlaWdodD0iMzYiIHJ4PSIyIiBmaWxsPSJ1cmwoI21vbml0b3JHcmFkKSIvPgogIDxyZWN0IHg9IjgiIHk9IjEwIiB3aWR0aD0iMzIiIGhlaWdodD0iMjgiIGZpbGw9IiNGRkZGRkYiLz4KICA8cmVjdCB4PSIxMiIgeT0iMTQiIHdpZHRoPSIyNCIgaGVpZ2h0PSIyMCIgZmlsbD0iI0Y4RjlGQSIvPgogIDxwYXRoIGQ9Ik0xNCAzMEwxOCAyNkwyMiAyOEwyNiAyMkwzMCAyNEwzNCAyMCIgc3Ryb2tlPSIjMDA3OEQ0IiBzdHJva2Utd2lkdGg9IjIiIGZpbGw9Im5vbmUiLz4KICA8Y2lyY2xlIGN4PSIxOCIgY3k9IjI2IiByPSIxLjUiIGZpbGw9IiMwMDc4RDQiLz4KICA8Y2lyY2xlIGN4PSIyMiIgY3k9IjI4IiByPSIxLjUiIGZpbGw9IiMwMDc4RDQiLz4KICA8Y2lyY2xlIGN4PSIyNiIgY3k9IjIyIiByPSIxLjUiIGZpbGw9IiMwMDc4RDQiLz4KICA8Y2lyY2xlIGN4PSIzMCIgY3k9IjI0IiByPSIxLjUiIGZpbGw9IiMwMDc4RDQiLz4KICA8cmVjdCB4PSIxNCIgeT0iMzIiIHdpZHRoPSIyIiBoZWlnaHQ9IjIiIGZpbGw9IiMwMDc4RDQiLz4KICA8cmVjdCB4PSIxOCIgeT0iMzIiIHdpZHRoPSIyIiBoZWlnaHQ9IjIiIGZpbGw9IiMwMDc4RDQiLz4KICA8cmVjdCB4PSIyMiIgeT0iMzIiIHdpZHRoPSIyIiBoZWlnaHQ9IjIiIGZpbGw9IiMwMDc4RDQiLz4KICA8cmVjdCB4PSIyNiIgeT0iMzIiIHdpZHRoPSIyIiBoZWlnaHQ9IjIiIGZpbGw9IiMwMDc4RDQiLz4KPC9zdmc+;fillColor=#0078D4;strokeColor=none;" vertex="1" parent="1">
          <mxGeometry x="520" y="470" width="50" height="50" as="geometry" />
        </mxCell>
        <mxCell id="monitor-label" value="Azure Monitor" style="text;html=1;strokeColor=none;fillColor=none;align=center;verticalAlign=middle;whiteSpace=wrap;rounded=0;fontSize=10;" vertex="1" parent="1">
          <mxGeometry x="505" y="525" width="80" height="15" as="geometry" />
        </mxCell>
        
        <!-- Log Analytics -->
        <mxCell id="log-analytics" value="" style="image;aspect=fixed;html=1;points=[];align=center;fontSize=12;image=img/lib/azure2/analytics/Log_Analytics_Workspaces.svg;" vertex="1" parent="1">
          <mxGeometry x="620" y="470" width="50" height="50" as="geometry" />
        </mxCell>
        <mxCell id="la-label" value="Log Analytics" style="text;html=1;strokeColor=none;fillColor=none;align=center;verticalAlign=middle;whiteSpace=wrap;rounded=0;fontSize=10;" vertex="1" parent="1">
          <mxGeometry x="605" y="525" width="80" height="15" as="geometry" />
        </mxCell>
        
        <!-- Microsoft Sentinel -->
        <mxCell id="sentinel" value="" style="image;aspect=fixed;html=1;points=[];align=center;fontSize=12;image=img/lib/azure2/security/Azure_Sentinel.svg;" vertex="1" parent="1">
          <mxGeometry x="720" y="470" width="50" height="50" as="geometry" />
        </mxCell>
        <mxCell id="sentinel-label" value="Microsoft Sentinel" style="text;html=1;strokeColor=none;fillColor=none;align=center;verticalAlign=middle;whiteSpace=wrap;rounded=0;fontSize=10;" vertex="1" parent="1">
          <mxGeometry x="700" y="525" width="90" height="15" as="geometry" />
        </mxCell>
        
        <!-- Defender for Cloud -->
        <mxCell id="defender" value="" style="image;aspect=fixed;html=1;points=[];align=center;fontSize=12;image=img/lib/azure2/security/Security_Center.svg;" vertex="1" parent="1">
          <mxGeometry x="820" y="470" width="50" height="50" as="geometry" />
        </mxCell>
        <mxCell id="defender-label" value="Defender for Cloud" style="text;html=1;strokeColor=none;fillColor=none;align=center;verticalAlign=middle;whiteSpace=wrap;rounded=0;fontSize=10;" vertex="1" parent="1">
          <mxGeometry x="800" y="525" width="90" height="15" as="geometry" />
        </mxCell>
        
        <!-- Azure Policy -->
        <mxCell id="azure-policy" value="" style="image;aspect=fixed;html=1;points=[];align=center;fontSize=12;image=img/lib/azure2/management_governance/Policy.svg;" vertex="1" parent="1">
          <mxGeometry x="920" y="470" width="50" height="50" as="geometry" />
        </mxCell>
        <mxCell id="policy-label" value="Azure Policy" style="text;html=1;strokeColor=none;fillColor=none;align=center;verticalAlign=middle;whiteSpace=wrap;rounded=0;fontSize=10;" vertex="1" parent="1">
          <mxGeometry x="905" y="525" width="80" height="15" as="geometry" />
        </mxCell>
        
        <!-- Cost Management -->
        <mxCell id="cost-mgmt" value="" style="image;aspect=fixed;html=1;points=[];align=center;fontSize=12;image=img/lib/azure2/management_governance/Cost_Management___Billing.svg;" vertex="1" parent="1">
          <mxGeometry x="1020" y="470" width="50" height="50" as="geometry" />
        </mxCell>
        <mxCell id="cost-label" value="Cost Management" style="text;html=1;strokeColor=none;fillColor=none;align=center;verticalAlign=middle;whiteSpace=wrap;rounded=0;fontSize=10;" vertex="1" parent="1">
          <mxGeometry x="1000" y="525" width="90" height="15" as="geometry" />
        </mxCell>
        
        <!-- Azure DevOps -->
        <mxCell id="devops" value="" style="image;aspect=fixed;html=1;points=[];align=center;fontSize=12;image=img/lib/azure2/devops/Azure_DevOps.svg;" vertex="1" parent="1">
          <mxGeometry x="1120" y="470" width="50" height="50" as="geometry" />
        </mxCell>
        <mxCell id="devops-label" value="Azure DevOps" style="text;html=1;strokeColor=none;fillColor=none;align=center;verticalAlign=middle;whiteSpace=wrap;rounded=0;fontSize=10;" vertex="1" parent="1">
          <mxGeometry x="1105" y="525" width="80" height="15" as="geometry" />
        </mxCell>
        
        <!-- Automation Account -->
        <mxCell id="automation" value="" style="image;aspect=fixed;html=1;points=[];align=center;fontSize=12;image=img/lib/azure2/management_governance/Automation_Accounts.svg;" vertex="1" parent="1">
          <mxGeometry x="1220" y="470" width="50" height="50" as="geometry" />
        </mxCell>
        <mxCell id="automation-label" value="Automation Account" style="text;html=1;strokeColor=none;fillColor=none;align=center;verticalAlign=middle;whiteSpace=wrap;rounded=0;fontSize=10;" vertex="1" parent="1">
          <mxGeometry x="1200" y="525" width="90" height="15" as="geometry" />
        </mxCell>
        
        <!-- Backup Zone -->
        <mxCell id="backup-zone" value="Backup &amp; Archive Zone (Cross-Region)" style="rounded=1;whiteSpace=wrap;html=1;fillColor=#DAE8FC;strokeColor=#6C8EBF;strokeWidth=3;fontSize=14;fontStyle=1;verticalAlign=top;align=center;" vertex="1" parent="1">
          <mxGeometry x="480" y="590" width="840" height="120" as="geometry" />
        </mxCell>
        
        <!-- Azure Backup -->
        <mxCell id="azure-backup" value="" style="outlineConnect=0;dashed=0;verticalLabelPosition=bottom;verticalAlign=top;align=center;html=1;shape=image;image=data:image/svg+xml;base64,PHN2ZyB4bWxucz0iaHR0cDovL3d3dy53My5vcmcvMjAwMC9zdmciIHZpZXdCb3g9IjAgMCA0OCA0OCIgZmlsbD0iIzAwNzhENCIgaGVpZ2h0PSI0OCIgd2lkdGg9IjQ4Ij4KICA8ZGVmcz4KICAgIDxsaW5lYXJHcmFkaWVudCBpZD0iYmFja3VwR3JhZCIgeDE9IjAlIiB5MT0iMCUiIHgyPSIxMDAlIiB5Mj0iMTAwJSI+CiAgICAgIDxzdG9wIG9mZnNldD0iMCUiIHN0eWxlPSJzdG9wLWNvbG9yOiMwMDc4RDQ7c3RvcC1vcGFjaXR5OjEiIC8+CiAgICAgIDxzdG9wIG9mZnNldD0iMTAwJSIgc3R5bGU9InN0b3AtY29sb3I6IzAwNUE5RTtzdG9wLW9wYWNpdHk6MSIgLz4KICAgIDwvbGluZWFyR3JhZGllbnQ+CiAgPC9kZWZzPgogIDxwYXRoIGQ9Ik04IDEwSDE2TDI0IDZMMzIgMTBINDBWMzhIOFYxMFoiIGZpbGw9InVybCgjYmFja3VwR3JhZCkiLz4KICA8cGF0aCBmaWxsPSIjRkZGRkZGIiBkPSJNMTIgMTZIMzZWMzRIMTJWMTZaIi8+CiAgPHBhdGggZmlsbD0iIzAwNzhENCIgZD0iTTE2IDIwSDMyVjMwSDE2VjIwWiIvPgogIDxwYXRoIGZpbGw9IiNGRkZGRkYiIGQ9Ik0yMCAyM0gyOFYyN0gyMFYyM1oiLz4KICA8Y2lyY2xlIGN4PSIyNCIgY3k9IjI1IiByPSIxIiBmaWxsPSIjMDA3OEQ0Ii8+CiAgPHBhdGggZD0iTTI0IDEyTDIwIDE0VjE4TDI0IDE2TDI4IDE4VjE0TDI0IDEyWiIgZmlsbD0iI0ZGRkZGRiIvPgo8L3N2Zz4=;fillColor=#0078D4;strokeColor=none;" vertex="1" parent="1">
          <mxGeometry x="520" y="620" width="50" height="50" as="geometry" />
        </mxCell>
        <mxCell id="backup-label" value="Azure Backup" style="text;html=1;strokeColor=none;fillColor=none;align=center;verticalAlign=middle;whiteSpace=wrap;rounded=0;fontSize=10;" vertex="1" parent="1">
          <mxGeometry x="505" y="675" width="80" height="15" as="geometry" />
        </mxCell>
        
        <!-- Geo-Redundant Storage -->
        <mxCell id="grs-storage" value="" style="image;aspect=fixed;html=1;points=[];align=center;fontSize=12;image=img/lib/azure2/storage/Storage_Accounts.svg;" vertex="1" parent="1">
          <mxGeometry x="620" y="620" width="50" height="40" as="geometry" />
        </mxCell>
        <mxCell id="grs-label" value="GRS Storage&#xa;(Geo-Redundant)" style="text;html=1;strokeColor=none;fillColor=none;align=center;verticalAlign=middle;whiteSpace=wrap;rounded=0;fontSize=10;" vertex="1" parent="1">
          <mxGeometry x="595" y="665" width="100" height="25" as="geometry" />
        </mxCell>
        
        <!-- Archive Storage -->
        <mxCell id="archive-storage" value="" style="image;aspect=fixed;html=1;points=[];align=center;fontSize=12;image=img/lib/azure2/storage/StorSimple_Data_Managers.svg;" vertex="1" parent="1">
          <mxGeometry x="720" y="620" width="50" height="50" as="geometry" />
        </mxCell>
        <mxCell id="archive-label" value="Archive Storage&#xa;(Long-term)" style="text;html=1;strokeColor=none;fillColor=none;align=center;verticalAlign=middle;whiteSpace=wrap;rounded=0;fontSize=10;" vertex="1" parent="1">
          <mxGeometry x="700" y="675" width="90" height="20" as="geometry" />
        </mxCell>
        
        <!-- Data Box -->
        <mxCell id="data-box" value="" style="image;aspect=fixed;html=1;points=[];align=center;fontSize=12;image=img/lib/azure2/migrate/Data_Box.svg;" vertex="1" parent="1">
          <mxGeometry x="820" y="620" width="50" height="40" as="geometry" />
        </mxCell>
        <mxCell id="databox-label" value="Data Box&#xa;(Offline Transfer)" style="text;html=1;strokeColor=none;fillColor=none;align=center;verticalAlign=middle;whiteSpace=wrap;rounded=0;fontSize=10;" vertex="1" parent="1">
          <mxGeometry x="800" y="665" width="90" height="25" as="geometry" />
        </mxCell>
        
        <!-- SQL LTR -->
        <mxCell id="sql-ltr" value="" style="image;aspect=fixed;html=1;points=[];align=center;fontSize=12;image=img/lib/azure2/databases/SQL_Database.svg;" vertex="1" parent="1">
          <mxGeometry x="920" y="620" width="50" height="50" as="geometry" />
        </mxCell>
        <mxCell id="sql-ltr-label" value="SQL LTR Backups&#xa;(10 Year Retention)" style="text;html=1;strokeColor=none;fillColor=none;align=center;verticalAlign=middle;whiteSpace=wrap;rounded=0;fontSize=10;" vertex="1" parent="1">
          <mxGeometry x="895" y="675" width="100" height="20" as="geometry" />
        </mxCell>
        
        <!-- Business Continuity Center -->
        <mxCell id="bc-center" value="" style="image;aspect=fixed;html=1;points=[];align=center;fontSize=12;image=img/lib/azure2/general/Resource_Groups.svg;" vertex="1" parent="1">
          <mxGeometry x="1020" y="620" width="50" height="45" as="geometry" />
        </mxCell>
        <mxCell id="bc-label" value="Business Continuity&#xa;Center" style="text;html=1;strokeColor=none;fillColor=none;align=center;verticalAlign=middle;whiteSpace=wrap;rounded=0;fontSize=10;" vertex="1" parent="1">
          <mxGeometry x="1000" y="670" width="90" height="25" as="geometry" />
        </mxCell>
        
        <!-- Cross-Region Replication -->
        <mxCell id="cross-region-rep" value="" style="image;aspect=fixed;html=1;points=[];align=center;fontSize=12;image=img/lib/azure2/storage/StorSimple_Device_Managers.svg;" vertex="1" parent="1">
          <mxGeometry x="1120" y="620" width="50" height="50" as="geometry" />
        </mxCell>
        <mxCell id="cross-region-label" value="Cross-Region&#xa;Replication" style="text;html=1;strokeColor=none;fillColor=none;align=center;verticalAlign=middle;whiteSpace=wrap;rounded=0;fontSize=10;" vertex="1" parent="1">
          <mxGeometry x="1100" y="675" width="90" height="20" as="geometry" />
        </mxCell>
        
        <!-- Immutable Storage -->
        <mxCell id="immutable-vault" value="" style="image;aspect=fixed;html=1;points=[];align=center;fontSize=12;image=img/lib/azure2/storage/Storage_Accounts.svg;" vertex="1" parent="1">
          <mxGeometry x="1220" y="620" width="50" height="40" as="geometry" />
        </mxCell>
        <mxCell id="immutable-label" value="Immutable Vault&#xa;(WORM Compliance)" style="text;html=1;strokeColor=none;fillColor=none;align=center;verticalAlign=middle;whiteSpace=wrap;rounded=0;fontSize=10;" vertex="1" parent="1">
          <mxGeometry x="1200" y="665" width="90" height="25" as="geometry" />
        </mxCell>
        
        <!-- Network Security Groups -->
        <mxCell id="nsg1" value="NSG" style="rounded=1;whiteSpace=wrap;html=1;fillColor=#FFCDD2;strokeColor=#D32F2F;strokeWidth=2;fontSize=10;fontStyle=1;" vertex="1" parent="1">
          <mxGeometry x="480" y="100" width="40" height="15" as="geometry" />
        </mxCell>
        <mxCell id="nsg2" value="NSG" style="rounded=1;whiteSpace=wrap;html=1;fillColor=#FFCDD2;strokeColor=#D32F2F;strokeWidth=2;fontSize=10;fontStyle=1;" vertex="1" parent="1">
          <mxGeometry x="920" y="100" width="40" height="15" as="geometry" />
        </mxCell>
        
        <!-- Network Connections -->
        <!-- Internet to Front Door -->
        <mxCell id="internet-frontdoor" value="" style="endArrow=classic;html=1;rounded=0;strokeColor=#1976D2;strokeWidth=3;entryX=0.5;entryY=0;entryDx=0;entryDy=0;exitX=0.5;exitY=1;exitDx=0;exitDy=0;" edge="1" parent="1" source="internet" target="front-door">
          <mxGeometry width="50" height="50" relative="1" as="geometry">
            <mxPoint x="360" y="160" as="sourcePoint" />
            <mxPoint x="410" y="110" as="targetPoint" />
          </mxGeometry>
        </mxCell>
        <mxCell id="internet-label-conn" value="HTTPS/443" style="text;html=1;strokeColor=none;fillColor=#E3F2FD;align=center;verticalAlign=middle;whiteSpace=wrap;rounded=1;fontSize=9;fontStyle=1;" vertex="1" parent="1">
          <mxGeometry x="370" y="155" width="60" height="15" as="geometry" />
        </mxCell>
        
        <!-- Front Door to Production -->
        <mxCell id="frontdoor-prod" value="" style="endArrow=classic;html=1;rounded=0;strokeColor=#82B366;strokeWidth=3;entryX=0;entryY=0.5;entryDx=0;entryDy=0;exitX=1;exitY=0.5;exitDx=0;exitDy=0;" edge="1" parent="1" source="front-door" target="prod-hub-vnet">
          <mxGeometry width="50" height="50" relative="1" as="geometry">
            <mxPoint x="410" y="215" as="sourcePoint" />
            <mxPoint x="480" y="215" as="targetPoint" />
          </mxGeometry>
        </mxCell>
        <mxCell id="frontdoor-prod-label" value="HTTPS/443&#xa;WAF Protected" style="text;html=1;strokeColor=none;fillColor=#D5E8D4;align=center;verticalAlign=middle;whiteSpace=wrap;rounded=1;fontSize=9;fontStyle=1;" vertex="1" parent="1">
          <mxGeometry x="410" y="200" width="70" height="25" as="geometry" />
        </mxCell>
        
        <!-- Production to SIRE (Site Recovery) -->
        <mxCell id="prod-sire-replication" value="" style="endArrow=classic;startArrow=classic;html=1;rounded=0;strokeColor=#0277BD;strokeWidth=3;entryX=0;entryY=0.5;entryDx=0;entryDy=0;exitX=1;exitY=0.5;exitDx=0;exitDy=0;" edge="1" parent="1" source="prod-hub-vnet" target="sire-vnet">
          <mxGeometry width="50" height="50" relative="1" as="geometry">
            <mxPoint x="880" y="260" as="sourcePoint" />
            <mxPoint x="920" y="260" as="targetPoint" />
          </mxGeometry>
        </mxCell>
        <mxCell id="replication-label" value="Site Recovery&#xa;Replication (443)" style="text;html=1;strokeColor=none;fillColor=#E1F5FE;align=center;verticalAlign=middle;whiteSpace=wrap;rounded=1;fontSize=9;fontStyle=1;" vertex="1" parent="1">
          <mxGeometry x="890" y="240" width="80" height="25" as="geometry" />
        </mxCell>
        
        <!-- Air Gap Indication -->
        <mxCell id="air-gap-symbol" value="🚫" style="text;html=1;strokeColor=#B85450;fillColor=#F8CECC;align=center;verticalAlign=middle;whiteSpace=wrap;rounded=1;fontSize=20;fontStyle=1;" vertex="1" parent="1">
          <mxGeometry x="890" y="280" width="30" height="30" as="geometry" />
        </mxCell>
        <mxCell id="air-gap-label" value="Air Gap&#xa;(Isolated)" style="text;html=1;strokeColor=none;fillColor=none;align=center;verticalAlign=middle;whiteSpace=wrap;rounded=0;fontSize=9;fontStyle=1;fontColor=#B85450;" vertex="1" parent="1">
          <mxGeometry x="880" y="315" width="50" height="20" as="geometry" />
        </mxCell>
        
        <!-- Monitoring Connections -->
        <mxCell id="prod-monitoring" value="" style="endArrow=classic;html=1;rounded=0;strokeColor=#F57F17;strokeWidth=2;entryX=0.5;entryY=0;entryDx=0;entryDy=0;exitX=0.5;exitY=1;exitDx=0;exitDy=0;" edge="1" parent="1" source="prod-hub-vnet" target="mgmt-zone">
          <mxGeometry width="50" height="50" relative="1" as="geometry">
            <mxPoint x="680" y="410" as="sourcePoint" />
            <mxPoint x="730" y="360" as="targetPoint" />
          </mxGeometry>
        </mxCell>
        
        <mxCell id="sire-monitoring" value="" style="endArrow=classic;html=1;rounded=0;strokeColor=#F57F17;strokeWidth=2;entryX=0.5;entryY=0;entryDx=0;entryDy=0;exitX=0.5;exitY=1;exitDx=0;exitDy=0;" edge="1" parent="1" source="sire-vnet" target="mgmt-zone">
          <mxGeometry width="50" height="50" relative="1" as="geometry">
            <mxPoint x="1120" y="410" as="sourcePoint" />
            <mxPoint x="1170" y="360" as="targetPoint" />
          </mxGeometry>
        </mxCell>
        
        <!-- Backup Connections -->
        <mxCell id="mgmt-backup" value="" style="endArrow=classic;html=1;rounded=0;strokeColor=#6C8EBF;strokeWidth=2;entryX=0.5;entryY=0;entryDx=0;entryDy=0;exitX=0.5;exitY=1;exitDx=0;exitDy=0;" edge="1" parent="1" source="mgmt-zone" target="backup-zone">
          <mxGeometry width="50" height="50" relative="1" as="geometry">
            <mxPoint x="900" y="570" as="sourcePoint" />
            <mxPoint x="950" y="520" as="targetPoint" />
          </mxGeometry>
        </mxCell>
        
        <!-- Zero Trust Indicators -->
        <mxCell id="zero-trust-indicator" value="🔒 Zero Trust Architecture" style="text;html=1;strokeColor=#2E7D32;fillColor=#C8E6C9;align=center;verticalAlign=middle;whiteSpace=wrap;rounded=1;fontSize=12;fontStyle=1;" vertex="1" parent="1">
          <mxGeometry x="20" y="320" width="220" height="30" as="geometry" />
        </mxCell>
        
        <!-- Security Controls -->
        <mxCell id="security-controls" value="✓ Private Endpoints&#xa;✓ Network Security Groups&#xa;✓ Azure Firewall Rules&#xa;✓ Conditional Access&#xa;✓ RBAC &amp; PIM" style="text;html=1;strokeColor=#2E7D32;fillColor=#C8E6C9;align=left;verticalAlign=middle;whiteSpace=wrap;rounded=1;fontSize=10;" vertex="1" parent="1">
          <mxGeometry x="20" y="360" width="220" height="70" as="geometry" />
        </mxCell>
        
        <!-- RTO/RPO Metrics -->
        <mxCell id="rto-rpo-metrics" value="Performance Metrics:&#xa;RTO: &lt; 2 Hours (Tier 1)&#xa;RPO: &lt; 15 Minutes&#xa;Availability: 99.95%&#xa;Recovery Success: 99.9%" style="text;html=1;strokeColor=#1565C0;fillColor=#E3F2FD;align=left;verticalAlign=middle;whiteSpace=wrap;rounded=1;fontSize=10;fontStyle=1;" vertex="1" parent="1">
          <mxGeometry x="20" y="450" width="220" height="70" as="geometry" />
        </mxCell>
        
        <!-- Compliance Frameworks -->
        <mxCell id="compliance-frameworks" value="Compliance Ready:&#xa;✓ SOX, GDPR, HIPAA&#xa;✓ ISO 27001/27017&#xa;✓ NIST Cybersecurity&#xa;✓ Azure Security Benchmark" style="text;html=1;strokeColor=#6A1B9A;fillColor=#F3E5F5;align=left;verticalAlign=middle;whiteSpace=wrap;rounded=1;fontSize=10;" vertex="1" parent="1">
          <mxGeometry x="20" y="540" width="220" height="70" as="geometry" />
        </mxCell>
        
        <!-- Network Ports and Protocols -->
        <mxCell id="network-protocols" value="Network Protocols:&#xa;• HTTPS: 443 (Encrypted)&#xa;• Site Recovery: 443 (TLS)&#xa;• Management: 443 (RBAC)&#xa;• Monitoring: 443 (Secure)&#xa;• No inbound from Internet to SIRE" style="text;html=1;strokeColor=#E65100;fillColor=#FFF3E0;align=left;verticalAlign=middle;whiteSpace=wrap;rounded=1;fontSize=10;" vertex="1" parent="1">
          <mxGeometry x="20" y="620" width="220" height="80" as="geometry" />
        </mxCell>
        
        <!-- Version and Metadata -->
        <mxCell id="diagram-metadata" value="Diagram: Network Topology &amp; Security Zones&#xa;Version: 1.0 | Updated: January 2024&#xa;Standard: Azure Well-Architected Framework&#xa;Security Model: Zero Trust + Defense in Depth" style="text;html=1;strokeColor=#37474F;fillColor=#ECEFF1;align=left;verticalAlign=middle;whiteSpace=wrap;rounded=1;fontSize=9;" vertex="1" parent="1">
          <mxGeometry x="1360" y="80" width="270" height="60" as="geometry" />
        </mxCell>
        
        <!-- Traffic Flow Indicators -->
        <mxCell id="traffic-flow-legend" value="Traffic Flow Types:&#xa;→ Primary Traffic (Green)&#xa;→ Replication Traffic (Blue)&#xa;→ Management Traffic (Orange)&#xa;→ Backup Traffic (Light Blue)" style="text;html=1;strokeColor=#37474F;fillColor=#ECEFF1;align=left;verticalAlign=middle;whiteSpace=wrap;rounded=1;fontSize=9;" vertex="1" parent="1">
          <mxGeometry x="1360" y="160" width="270" height="70" as="geometry" />
        </mxCell>
      </root>
    </mxGraphModel>
  </diagram>
</mxfile>